<svg xmlns="http://www.w3.org/2000/svg" xmlns:xlink="http://www.w3.org/1999/xlink" width="250" zoomAndPan="magnify" viewBox="0 0 187.5 374.999989" height="500" preserveAspectRatio="xMidYMid meet" version="1.0"><defs><clipPath id="10414bba35"><path d="M 0 6 L 45.75 6 L 45.75 41.75 L 0 41.75 Z M 0 6 " clip-rule="nonzero"/></clipPath><clipPath id="0ce825ad26"><path d="M 6 0.5 L 45.75 0.5 L 45.75 41.75 L 6 41.75 Z M 6 0.5 " clip-rule="nonzero"/></clipPath><clipPath id="1c2db56402"><path d="M 141.742188 6 L 187 6 L 187 41.75 L 141.742188 41.75 Z M 141.742188 6 " clip-rule="nonzero"/></clipPath><clipPath id="7810d5cc8d"><path d="M 141.742188 0.5 L 182 0.5 L 182 41.75 L 141.742188 41.75 Z M 141.742188 0.5 " clip-rule="nonzero"/></clipPath><clipPath id="47dad3e554"><path d="M 0 191.75 L 45.75 191.75 L 45.75 228 L 0 228 Z M 0 191.75 " clip-rule="nonzero"/></clipPath><clipPath id="adbccf2a19"><path d="M 6 191.75 L 45.75 191.75 L 45.75 233 L 6 233 Z M 6 191.75 " clip-rule="nonzero"/></clipPath><clipPath id="5266bc778a"><path d="M 141.742188 191.75 L 187 191.75 L 187 228 L 141.742188 228 Z M 141.742188 191.75 " clip-rule="nonzero"/></clipPath><clipPath id="8532f57521"><path d="M 141.742188 191.75 L 182 191.75 L 182 233 L 141.742188 233 Z M 141.742188 191.75 " clip-rule="nonzero"/></clipPath></defs><g clip-path="url(#10414bba35)"><path fill="#8c52ff" d="M 0 31.597656 L 0 6.542969 L 35.441406 6.542969 L 35.441406 7.425781 L 0.871094 7.425781 L 0.871094 31.597656 Z M 77.070312 6.542969 L 112.5 6.542969 L 112.5 31.597656 L 111.628906 31.597656 L 111.628906 7.425781 L 77.070312 7.425781 Z M 112.5 81.910156 L 112.5 106.953125 L 77.070312 106.953125 L 77.070312 106.074219 L 111.628906 106.074219 L 111.628906 81.910156 Z M 35.441406 106.953125 L 0 106.953125 L 0 81.910156 L 0.871094 81.910156 L 0.871094 106.074219 L 35.441406 106.074219 Z M 35.441406 106.953125 " fill-opacity="1" fill-rule="nonzero"/></g><g clip-path="url(#0ce825ad26)"><path fill="#8c52ff" d="M 6.046875 31.597656 L 6.046875 0.5 L 34.855469 0.5 L 34.855469 1.367188 L 6.925781 1.367188 L 6.925781 31.597656 Z M 77.644531 0.5 L 106.453125 0.5 L 106.453125 31.597656 L 105.574219 31.597656 L 105.574219 1.367188 L 77.644531 1.367188 Z M 106.453125 81.910156 L 106.453125 113 L 77.644531 113 L 77.644531 112.128906 L 105.574219 112.128906 L 105.574219 81.910156 Z M 34.855469 113 L 6.046875 113 L 6.046875 81.910156 L 6.925781 81.910156 L 6.925781 112.128906 L 34.855469 112.128906 Z M 34.855469 113 " fill-opacity="1" fill-rule="nonzero"/></g><g clip-path="url(#1c2db56402)"><path fill="#8c52ff" d="M 187.492188 31.597656 L 187.492188 6.542969 L 152.054688 6.542969 L 152.054688 7.425781 L 186.625 7.425781 L 186.625 31.597656 Z M 110.425781 6.542969 L 74.992188 6.542969 L 74.992188 31.597656 L 75.863281 31.597656 L 75.863281 7.425781 L 110.425781 7.425781 Z M 74.992188 81.910156 L 74.992188 106.953125 L 110.425781 106.953125 L 110.425781 106.074219 L 75.863281 106.074219 L 75.863281 81.910156 Z M 152.054688 106.953125 L 187.492188 106.953125 L 187.492188 81.910156 L 186.625 81.910156 L 186.625 106.074219 L 152.054688 106.074219 Z M 152.054688 106.953125 " fill-opacity="1" fill-rule="nonzero"/></g><g clip-path="url(#7810d5cc8d)"><path fill="#8c52ff" d="M 181.449219 31.597656 L 181.449219 0.5 L 152.640625 0.5 L 152.640625 1.367188 L 180.566406 1.367188 L 180.566406 31.597656 Z M 109.847656 0.5 L 81.039062 0.5 L 81.039062 31.597656 L 81.917969 31.597656 L 81.917969 1.367188 L 109.847656 1.367188 Z M 81.039062 81.910156 L 81.039062 113 L 109.847656 113 L 109.847656 112.128906 L 81.917969 112.128906 L 81.917969 81.910156 Z M 152.640625 113 L 181.449219 113 L 181.449219 81.910156 L 180.566406 81.910156 L 180.566406 112.128906 L 152.640625 112.128906 Z M 152.640625 113 " fill-opacity="1" fill-rule="nonzero"/></g><g clip-path="url(#47dad3e554)"><path fill="#8c52ff" d="M 0 202.101562 L 0 227.152344 L 35.441406 227.152344 L 35.441406 226.273438 L 0.871094 226.273438 L 0.871094 202.101562 Z M 77.070312 227.152344 L 112.5 227.152344 L 112.5 202.101562 L 111.628906 202.101562 L 111.628906 226.273438 L 77.070312 226.273438 Z M 112.5 151.785156 L 112.5 126.742188 L 77.070312 126.742188 L 77.070312 127.625 L 111.628906 127.625 L 111.628906 151.785156 Z M 35.441406 126.742188 L 0 126.742188 L 0 151.785156 L 0.871094 151.785156 L 0.871094 127.625 L 35.441406 127.625 Z M 35.441406 126.742188 " fill-opacity="1" fill-rule="nonzero"/></g><g clip-path="url(#adbccf2a19)"><path fill="#8c52ff" d="M 6.046875 202.101562 L 6.046875 233.199219 L 34.855469 233.199219 L 34.855469 232.328125 L 6.925781 232.328125 L 6.925781 202.101562 Z M 77.644531 233.199219 L 106.453125 233.199219 L 106.453125 202.101562 L 105.574219 202.101562 L 105.574219 232.328125 L 77.644531 232.328125 Z M 106.453125 151.785156 L 106.453125 120.699219 L 77.644531 120.699219 L 77.644531 121.566406 L 105.574219 121.566406 L 105.574219 151.785156 Z M 34.855469 120.699219 L 6.046875 120.699219 L 6.046875 151.785156 L 6.925781 151.785156 L 6.925781 121.566406 L 34.855469 121.566406 Z M 34.855469 120.699219 " fill-opacity="1" fill-rule="nonzero"/></g><g clip-path="url(#5266bc778a)"><path fill="#8c52ff" d="M 187.492188 202.101562 L 187.492188 227.152344 L 152.054688 227.152344 L 152.054688 226.273438 L 186.625 226.273438 L 186.625 202.101562 Z M 110.425781 227.152344 L 74.992188 227.152344 L 74.992188 202.101562 L 75.863281 202.101562 L 75.863281 226.273438 L 110.425781 226.273438 Z M 74.992188 151.785156 L 74.992188 126.742188 L 110.425781 126.742188 L 110.425781 127.625 L 75.863281 127.625 L 75.863281 151.785156 Z M 152.054688 126.742188 L 187.492188 126.742188 L 187.492188 151.785156 L 186.625 151.785156 L 186.625 127.625 L 152.054688 127.625 Z M 152.054688 126.742188 " fill-opacity="1" fill-rule="nonzero"/></g><g clip-path="url(#8532f57521)"><path fill="#8c52ff" d="M 181.449219 202.101562 L 181.449219 233.199219 L 152.640625 233.199219 L 152.640625 232.328125 L 180.566406 232.328125 L 180.566406 202.101562 Z M 109.847656 233.199219 L 81.039062 233.199219 L 81.039062 202.101562 L 81.917969 202.101562 L 81.917969 232.328125 L 109.847656 232.328125 Z M 81.039062 151.785156 L 81.039062 120.699219 L 109.847656 120.699219 L 109.847656 121.566406 L 81.917969 121.566406 L 81.917969 151.785156 Z M 152.640625 120.699219 L 181.449219 120.699219 L 181.449219 151.785156 L 180.566406 151.785156 L 180.566406 121.566406 L 152.640625 121.566406 Z M 152.640625 120.699219 " fill-opacity="1" fill-rule="nonzero"/></g></svg>