<svg xmlns="http://www.w3.org/2000/svg" xmlns:xlink="http://www.w3.org/1999/xlink" width="50" zoomAndPan="magnify" viewBox="0 0 37.5 37.499999" height="50" preserveAspectRatio="xMidYMid meet" version="1.0"><defs><clipPath id="8bbcc4bd5e"><path d="M 2.902344 6.070312 L 16 6.070312 L 16 31.570312 L 2.902344 31.570312 Z M 2.902344 6.070312 " clip-rule="nonzero"/></clipPath><clipPath id="0f2d81f6be"><path d="M 22 6.070312 L 34.949219 6.070312 L 34.949219 31.570312 L 22 31.570312 Z M 22 6.070312 " clip-rule="nonzero"/></clipPath></defs><g clip-path="url(#8bbcc4bd5e)"><path fill="#8c52ff" d="M 15.078125 18.820312 L 6.105469 18.820312 L 6.105469 18.808594 C 6.105469 16.355469 7.332031 14.085938 9.382812 12.722656 L 15.007812 8.988281 C 15.746094 8.5 15.941406 7.515625 15.449219 6.78125 C 15.140625 6.324219 14.636719 6.070312 14.113281 6.070312 C 13.8125 6.070312 13.5 6.160156 13.222656 6.34375 L 7.597656 10.074219 C 4.664062 12.019531 2.902344 15.289062 2.902344 18.808594 L 2.902344 30.929688 C 2.902344 31.28125 3.1875 31.570312 3.546875 31.570312 L 15.078125 31.570312 C 15.433594 31.570312 15.722656 31.289062 15.722656 30.929688 L 15.722656 19.460938 C 15.722656 19.101562 15.4375 18.820312 15.078125 18.820312 " fill-opacity="1" fill-rule="nonzero"/></g><g clip-path="url(#0f2d81f6be)"><path fill="#8c52ff" d="M 34.304688 18.820312 L 25.335938 18.820312 L 25.335938 18.808594 C 25.335938 16.355469 26.558594 14.085938 28.609375 12.722656 L 34.238281 8.988281 C 34.976562 8.5 35.167969 7.515625 34.679688 6.78125 C 34.367188 6.324219 33.867188 6.070312 33.339844 6.070312 C 33.039062 6.070312 32.730469 6.160156 32.453125 6.34375 L 26.824219 10.074219 C 23.875 12.023438 22.125 15.289062 22.125 18.808594 L 22.125 30.929688 C 22.125 31.28125 22.410156 31.570312 22.769531 31.570312 L 34.304688 31.570312 C 34.660156 31.570312 34.949219 31.289062 34.949219 30.929688 L 34.949219 19.460938 C 34.949219 19.101562 34.660156 18.820312 34.304688 18.820312 " fill-opacity="1" fill-rule="nonzero"/></g></svg>